mtllib materials.mtl

usemtl Aluminum
v 0.5 1 -1
vt -19.685 39.3701
vn 0 0 -1
v -0.5 0 -1
vt 19.685 0
v -0.5 1 -1
vt 19.685 39.3701
f 1/1/1 2/2/1 3/3/1

v 0.5 0 -1
vt -19.685 0
f 2/2/1 1/1/1 4/4/1

vt 39.3701 -39.3701
vn 1 0 0
v 0.5 0 1
vt 0 39.3701
vt 0 -39.3701
f 1/5/2 5/6/2 4/7/2

v 0.5 1 1
vt 39.3701 39.3701
f 5/6/2 1/5/2 6/8/2

vt -19.685 -39.3701
vn 0 1 0
v -0.5 1 1
f 1/9/3 7/3/3 6/1/3

vt 19.685 -39.3701
f 7/3/3 1/9/3 3/10/3

vn -1 0 0
vt -39.3701 39.3701
vt -39.3701 -39.3701
f 2/7/4 7/11/4 3/12/4

v -0.5 0 1
f 7/11/4 2/7/4 8/6/4

vn 0 -1 0
f 2/9/5 5/3/5 8/1/5

f 5/3/5 2/9/5 4/10/5

vn 0 0 1
f 5/2/6 7/1/6 8/4/6

f 7/1/6 5/2/6 6/3/6

