v 0.100000 15.000000 0.173210 # 1
v 0.200000 15.000000 -0.000000 # 2
v -0.000000 15.200000 -0.000000 # 3
v 0.087550 11.666950 -0.108600 # 4
v -0.036450 12.399320 -2.500550 # 5
v 0.036550 12.399320 -2.500550 # 6
v -0.087450 11.666950 -0.108600 # 7
v -0.100000 15.000000 0.173210 # 8
v -0.200000 15.000000 -0.000000 # 9
v -0.036300 13.899230 2.484320 # 10
v -0.174800 13.313250 0.053140 # 11
v -0.087300 13.166860 0.092360 # 12
v -0.072800 13.960300 2.467950 # 13
v -0.036550 12.399320 2.500550 # 14
v -0.036550 12.521450 2.467830 # 15
v -0.073050 12.460390 2.484190 # 16
v 0.036450 12.399320 2.500550 # 17
v 0.036450 12.521450 2.467830 # 18
v 0.072950 12.460390 2.484190 # 19
v 0.087450 11.666950 0.108600 # 20
v -0.087550 11.666950 0.108600 # 21
v -0.087450 11.959730 -0.030150 # 22
v -0.072950 12.460390 -2.484190 # 23
v -0.174950 11.813340 -0.069380 # 24
v -0.036450 12.521450 -2.467830 # 25
v -0.100000 15.000000 -0.173210 # 26
v 0.175050 11.813340 -0.069380 # 27
v 0.073050 12.460390 -2.484190 # 28
v 0.036550 12.521450 -2.467830 # 29
v 0.087550 11.959730 -0.030150 # 30
v -0.036700 14.021360 -2.451590 # 31
v -0.036700 13.899230 -2.484320 # 32
v -0.073200 13.960300 -2.467950 # 33
v 0.036300 14.021360 -2.451590 # 34
v 0.036300 13.899230 -2.484320 # 35
v 0.072800 13.960300 -2.467950 # 36
v 0.087700 13.459640 0.013910 # 37
v 0.073200 13.960300 2.467950 # 38
v 0.175200 13.313250 0.053140 # 39
v 0.036700 14.021360 2.451590 # 40
v 0.087450 11.959730 0.030150 # 41
v -0.087550 11.959730 0.030150 # 42
v -0.175050 11.813340 0.069380 # 43
v 0.174950 11.813340 0.069380 # 44
v 0.174800 13.313250 -0.053140 # 45
v 0.087300 13.166860 -0.092360 # 46
v -0.036300 14.021360 2.451590 # 47
v -0.087300 13.459640 0.013910 # 48
v -0.175200 13.313250 -0.053140 # 49
v -0.087700 13.166860 -0.092360 # 50
v 0.036700 13.899230 2.484320 # 51
v 0.087700 13.166860 0.092360 # 52
v -0.087700 13.459640 -0.013910 # 53
v 0.087300 13.459640 -0.013910 # 54
v 0.100000 15.000000 -0.173210 # 55
v -0.350000 0.000000 -0.000000 # 56
v -0.175000 0.000000 0.303110 # 57
v 0.175000 0.000000 0.303110 # 58
v 0.350000 0.000000 -0.000000 # 59
v 0.175000 0.000000 -0.303110 # 60
v -0.175000 0.000000 -0.303110 # 61
v -0.090500 10.459790 -0.043140 # 62
v 0.033500 11.021510 -2.480820 # 63
v -0.039500 11.021510 -2.480820 # 64
v 0.084500 10.459790 -0.043140 # 65
v -0.039500 10.899380 -2.513540 # 66
v -0.076000 10.960440 -2.497180 # 67
v 0.033500 10.899380 -2.513540 # 68
v 0.070000 10.960440 -2.497180 # 69
v 0.084500 10.167010 -0.121590 # 70
v -0.090500 10.167010 -0.121590 # 71
v -0.178000 10.313400 -0.082370 # 72
v 0.172000 10.313400 -0.082370 # 73
v -0.035030 11.021510 2.480820 # 74
v 0.088970 10.459790 0.043140 # 75
v -0.086030 10.459790 0.043140 # 76
v 0.037970 11.021510 2.480820 # 77
v -0.071530 10.960440 2.497180 # 78
v -0.173530 10.313390 0.082370 # 79
v -0.035030 10.899380 2.513540 # 80
v -0.086030 10.167000 0.121590 # 81
v 0.037970 10.899380 2.513540 # 82
v 0.074470 10.960440 2.497180 # 83
v 0.176470 10.313390 0.082370 # 84
v 0.088970 10.167000 0.121590 # 85
vn 0.654650 0.654650 0.377960 # 1
vn 0.000000 -0.956180 -0.292770 # 2
vn -0.654650 0.654650 0.377960 # 3
vn -0.865490 -0.473520 0.163440 # 4
vn 0.000000 0.258820 0.965930 # 5
vn -0.000000 -0.956180 0.292770 # 6
vn -0.865490 0.491800 0.095220 # 7
vn -0.654650 0.654650 -0.377960 # 8
vn 0.865490 -0.473520 -0.163440 # 9
vn 0.000000 0.974460 0.224550 # 10
vn 0.865490 0.491800 0.095220 # 11
vn -0.000000 0.654650 0.755930 # 12
vn -0.000000 0.258820 -0.965930 # 13
vn 0.865490 0.491800 -0.095220 # 14
vn 0.000000 0.974460 -0.224550 # 15
vn -0.865490 0.491800 -0.095220 # 16
vn 0.865490 -0.473520 0.163440 # 17
vn -0.000000 0.974460 -0.224550 # 18
vn -0.865490 -0.473520 -0.163440 # 19
vn -0.000000 0.974460 0.224550 # 20
vn -0.000000 0.258820 0.965930 # 21
vn 0.654650 0.654650 -0.377960 # 22
vn 0.000000 0.258820 -0.965930 # 23
vn -0.000000 0.654650 -0.755930 # 24
vn -0.000000 -0.956180 -0.292770 # 25
vn -0.865990 0.008660 0.499980 # 26
vn -0.000000 0.008660 0.999960 # 27
vn 0.865990 0.008660 -0.499980 # 28
vn 0.865990 0.008660 0.499980 # 29
vn -0.865990 0.008660 -0.499980 # 30
vn 0.000000 0.008660 -0.999960 # 31
mtllib materials.mtl
usemtl DarkGreenPaintedMetal
s off
f 1//1 2//1 3//1
f 4//2 5//2 6//2
f 5//2 4//2 7//2
f 8//3 3//3 9//3
f 10//4 11//4 12//4
f 11//4 10//4 13//4
f 14//5 15//5 16//5
f 15//5 14//5 17//5
f 15//5 17//5 18//5
f 18//5 17//5 19//5
f 20//6 14//6 21//6
f 14//6 20//6 17//6
f 22//7 23//7 24//7
f 23//7 22//7 25//7
f 3//8 26//8 9//8
f 6//9 27//9 4//9
f 27//9 6//9 28//9
f 22//10 29//10 25//10
f 29//10 22//10 30//10
f 28//11 30//11 27//11
f 30//11 28//11 29//11
f 1//12 3//12 8//12
f 31//13 32//13 33//13
f 32//13 31//13 34//13
f 32//13 34//13 35//13
f 35//13 34//13 36//13
f 37//14 38//14 39//14
f 38//14 37//14 40//14
f 15//15 41//15 42//15
f 41//15 15//15 18//15
f 16//16 42//16 43//16
f 42//16 16//16 15//16
f 14//4 43//4 21//4
f 43//4 14//4 16//4
f 44//17 17//17 20//17
f 17//17 44//17 19//17
f 35//9 45//9 46//9
f 45//9 35//9 36//9
f 47//18 37//18 48//18
f 37//18 47//18 40//18
f 49//19 32//19 50//19
f 32//19 49//19 33//19
f 51//6 12//6 52//6
f 12//6 51//6 10//6
f 53//20 34//20 31//20
f 34//20 53//20 54//20
f 10//21 47//21 13//21
f 47//21 10//21 51//21
f 47//21 51//21 40//21
f 40//21 51//21 38//21
f 2//22 55//22 3//22
f 25//23 5//23 23//23
f 5//23 25//23 29//23
f 5//23 29//23 6//23
f 6//23 29//23 28//23
f 24//19 5//19 7//19
f 5//19 24//19 23//19
f 55//24 26//24 3//24
f 46//25 32//25 35//25
f 32//25 46//25 50//25
f 53//7 33//7 49//7
f 33//7 53//7 31//7
f 39//17 51//17 52//17
f 51//17 39//17 38//17
f 13//16 48//16 11//16
f 48//16 13//16 47//16
f 36//11 54//11 45//11
f 54//11 36//11 34//11
f 41//14 19//14 44//14
f 19//14 41//14 18//14
f 8//26 56//26 57//26
f 56//26 8//26 9//26
f 58//27 8//27 57//27
f 8//27 58//27 1//27
f 55//28 59//28 60//28
f 59//28 55//28 2//28
f 2//29 58//29 59//29
f 58//29 2//29 1//29
f 9//30 61//30 56//30
f 61//30 9//30 26//30
f 26//31 60//31 61//31
f 60//31 26//31 55//31
f 62//20 63//20 64//20
f 63//20 62//20 65//20
f 64//23 66//23 67//23
f 66//23 64//23 63//23
f 66//23 63//23 68//23
f 68//23 63//23 69//23
f 70//2 66//2 68//2
f 66//2 70//2 71//2
f 62//7 67//7 72//7
f 67//7 62//7 64//7
f 69//11 65//11 73//11
f 65//11 69//11 63//11
f 68//9 73//9 70//9
f 73//9 68//9 69//9
f 72//19 66//19 71//19
f 66//19 72//19 67//19
f 74//15 75//15 76//15
f 75//15 74//15 77//15
f 78//16 76//16 79//16
f 76//16 78//16 74//16
f 80//4 79//4 81//4
f 79//4 80//4 78//4
f 80//5 74//5 78//5
f 74//5 80//5 82//5
f 74//5 82//5 77//5
f 77//5 82//5 83//5
f 75//14 83//14 84//14
f 83//14 75//14 77//14
f 85//6 80//6 81//6
f 80//6 85//6 82//6
f 84//17 82//17 85//17
f 82//17 84//17 83//17
