v -0.799220 3.273940 1.298000 # 1
v -5.999220 3.423940 1.298000 # 2
v -5.999220 3.273940 1.298000 # 3
v -0.799220 3.423940 1.298000 # 4
v -0.799220 3.423940 -1.302000 # 5
v -5.999220 3.273940 -1.302000 # 6
v -5.999220 3.423940 -1.302000 # 7
v -0.799220 3.273940 -1.302000 # 8
v -1.999220 0.723940 0.798000 # 9
v -5.999220 1.023940 0.798000 # 10
v -5.999220 0.723940 0.798000 # 11
v -1.999220 0.973940 0.798000 # 12
v -0.799220 1.023940 0.798000 # 13
v -0.799220 0.973940 0.798000 # 14
v 0.500780 0.973940 0.798000 # 15
v -0.399220 1.023940 0.798000 # 16
v 0.000780 1.023940 0.798000 # 17
v 0.500780 1.023940 0.798000 # 18
v -0.799220 0.723940 0.798000 # 19
v -0.799220 0.473940 1.298000 # 20
v -0.799220 0.473940 0.798000 # 21
v -0.799220 0.973940 1.298000 # 22
v -1.999220 0.473940 1.298000 # 23
v -1.999220 0.473940 0.798000 # 24
v -1.999220 0.973940 1.298000 # 25
v -1.999220 0.723940 -0.802000 # 26
v -1.999220 0.473940 -1.302000 # 27
v -1.999220 0.473940 -0.802000 # 28
v -1.999220 0.973940 -1.302000 # 29
v -1.999220 0.973940 -0.802000 # 30
v -0.799220 0.723940 -0.802000 # 31
v -0.799220 0.473940 -0.802000 # 32
v -0.799220 0.473940 -1.302000 # 33
v -0.799220 0.973940 -1.302000 # 34
v -0.799220 0.973940 -0.802000 # 35
v -0.399220 1.023940 -0.802000 # 36
v -0.799220 1.023940 -0.802000 # 37
v 0.500780 0.723940 0.798000 # 38
v 1.200780 0.773940 1.148000 # 39
v 1.200780 1.023940 1.148000 # 40
v 1.200780 0.523940 1.148000 # 41
v 1.200780 0.923940 1.148000 # 42
v 0.130190 1.006910 1.148000 # 43
v 0.000780 2.023940 1.148000 # 44
v 0.000780 1.023940 1.148000 # 45
v 0.800780 1.923940 1.148000 # 46
v 0.250780 0.956960 1.148000 # 47
v 0.354330 0.877500 1.148000 # 48
v 0.433790 0.773940 1.148000 # 49
v 0.483740 0.653350 1.148000 # 50
v 0.500780 0.523940 1.148000 # 51
v 1.000780 1.623940 1.148000 # 52
v 1.200780 1.623940 1.148000 # 53
v -0.349220 2.623940 1.148000 # 54
v -0.399220 1.023940 1.148000 # 55
v 0.000780 2.623940 1.148000 # 56
v 0.130190 1.006910 -0.952000 # 57
v 0.000780 1.023940 -0.802000 # 58
v 0.000780 1.023940 -0.952000 # 59
v 0.130190 1.006910 0.948000 # 60
v 0.000780 1.023940 0.948000 # 61
v 0.250780 0.956960 0.948000 # 62
v 0.250780 0.956960 -0.952000 # 63
v 0.483740 0.653350 0.948000 # 64
v 0.433790 0.773940 -0.952000 # 65
v 0.483740 0.653350 -0.952000 # 66
v 0.433790 0.773940 0.948000 # 67
v 0.500780 0.523940 -0.952000 # 68
v 0.500780 0.523940 0.948000 # 69
v 1.400780 1.023940 -0.952000 # 70
v 1.400780 0.523940 0.948000 # 71
v 1.400780 0.523940 -0.952000 # 72
v 1.400780 1.023940 0.948000 # 73
v 1.400780 1.623940 0.948000 # 74
v 0.800780 2.623940 1.148000 # 75
v -0.199220 2.823940 0.948000 # 76
v 1.000780 2.623940 1.148000 # 77
v 0.800780 2.823940 0.948000 # 78
v 0.800780 2.823940 -0.952000 # 79
v 1.200780 2.723940 -0.952000 # 80
v 1.000780 2.623940 -1.152000 # 81
v 1.200780 2.723940 -0.002000 # 82
v 1.200780 2.723940 0.948000 # 83
v 1.400780 1.623940 -0.002000 # 84
v 1.400780 1.623940 -0.952000 # 85
v 1.200780 1.623940 -1.152000 # 86
v 1.500780 1.023940 -0.952000 # 87
v 1.500780 0.773940 -0.952000 # 88
v 1.500780 0.923940 -0.952000 # 89
v 1.500780 0.523940 -0.952000 # 90
v 1.300780 0.523940 -1.152000 # 91
v 1.300780 0.773940 -1.152000 # 92
v 1.500780 1.023940 0.948000 # 93
v 1.500780 0.523940 0.948000 # 94
v 1.500780 0.773940 0.948000 # 95
v 1.500780 0.923940 0.948000 # 96
v 1.300780 1.023940 1.148000 # 97
v 1.300780 0.523940 1.148000 # 98
v 1.300780 0.773940 1.148000 # 99
v 1.300780 1.023940 -1.152000 # 100
v 1.300780 0.923940 -1.152000 # 101
v 1.300780 0.923940 1.148000 # 102
v -5.999220 3.273940 -0.002000 # 103
v -0.799220 1.123940 1.298000 # 104
v -0.799220 1.123940 -1.302000 # 105
v -0.799220 1.023940 1.298000 # 106
v -0.799220 1.023940 -1.302000 # 107
v -5.999220 1.123940 -1.302000 # 108
v 0.500780 0.723940 -0.802000 # 109
v 0.500780 1.023940 -0.802000 # 110
v -0.364840 2.123940 0.698000 # 111
v -0.399220 1.023940 -1.152000 # 112
v -0.349220 2.623940 0.698000 # 113
v -0.364840 2.123940 -0.702000 # 114
v -0.349220 2.623940 -1.152000 # 115
v -0.349220 2.623940 -0.702000 # 116
v -0.199220 2.823940 -0.952000 # 117
v 1.200780 0.773940 -1.152000 # 118
v 1.200780 0.523940 -1.152000 # 119
v 1.200780 0.923940 -1.152000 # 120
v 1.200780 1.023940 -1.152000 # 121
v 0.500780 0.523940 -1.152000 # 122
v 0.000780 1.023940 -1.152000 # 123
v 0.000780 2.623940 -1.152000 # 124
v 0.000780 2.023940 -1.152000 # 125
v 0.130190 1.006910 -1.152000 # 126
v 0.792460 1.918400 -1.152000 # 127
v 0.800780 1.923940 -1.152000 # 128
v 0.250780 0.956960 -1.152000 # 129
v 0.354330 0.877500 -1.152000 # 130
v 0.433790 0.773940 -1.152000 # 131
v 0.483740 0.653350 -1.152000 # 132
v 0.992110 1.636950 -1.152000 # 133
v 0.983790 1.631410 -1.152000 # 134
v 0.806330 1.915620 -1.152000 # 135
v 0.798010 1.910080 -1.152000 # 136
v 0.992460 1.618400 -1.152000 # 137
v 1.000780 1.623940 -1.152000 # 138
v 0.354330 0.877500 -0.952000 # 139
v -5.999220 1.023940 -0.802000 # 140
v -5.999220 1.023940 -1.302000 # 141
v -5.999220 1.123940 -0.002000 # 142
v -5.999220 1.123940 1.298000 # 143
v -5.999220 0.723940 -0.802000 # 144
v -5.999220 1.023940 1.298000 # 145
v 0.354330 0.877500 0.948000 # 146
v -5.969220 0.403940 0.798000 # 147
v -5.999220 0.403940 0.798000 # 148
v -5.969220 0.723940 0.798000 # 149
v -5.969220 1.023940 1.268000 # 150
v -5.999220 1.023940 1.268000 # 151
v -5.969220 1.023940 1.298000 # 152
v -5.999220 0.723940 -0.772000 # 153
v -5.969220 0.723940 -0.802000 # 154
v -5.969220 0.723940 -0.772000 # 155
v -5.999220 1.023940 -1.272000 # 156
v -5.969220 1.023940 -1.302000 # 157
v -5.969220 1.023940 -1.272000 # 158
v -5.999220 0.373940 -1.302000 # 159
v -5.969220 0.373940 -1.302000 # 160
v -5.999220 0.403940 1.268000 # 161
v -5.969220 0.403940 1.268000 # 162
v -5.969220 0.403940 -0.802000 # 163
v -5.999220 0.403940 -0.802000 # 164
v -5.999220 0.403940 0.768000 # 165
v -5.969220 0.403940 -0.772000 # 166
v -5.999220 0.403940 -0.772000 # 167
v -5.969220 0.403940 0.768000 # 168
v -5.999220 0.723940 0.768000 # 169
v -5.969220 0.723940 0.768000 # 170
v -5.969220 0.403940 -1.272000 # 171
v -5.999220 0.403940 -1.272000 # 172
v -5.999220 0.373940 1.298000 # 173
v -5.969220 0.373940 1.298000 # 174
v -5.511650 1.019520 1.298000 # 175
v -5.969220 0.561950 1.268000 # 176
v -5.969220 0.561950 1.298000 # 177
v -5.511650 1.019520 1.268000 # 178
v -5.469220 1.019520 1.298000 # 179
v -5.969220 0.519520 1.268000 # 180
v -5.469220 1.019520 1.268000 # 181
v -5.969220 0.519520 1.298000 # 182
v -5.511650 1.023180 -1.272000 # 183
v -5.969220 0.565610 -1.302000 # 184
v -5.969220 0.565610 -1.272000 # 185
v -5.511650 1.023180 -1.302000 # 186
v -5.469220 1.023180 -1.272000 # 187
v -5.969220 0.523180 -1.302000 # 188
v -5.469220 1.023180 -1.302000 # 189
v -5.969220 0.523180 -1.272000 # 190
v 0.800780 2.623940 -1.152000 # 191
v 0.800780 2.613940 -1.152000 # 192
v 0.810780 2.623940 -1.152000 # 193
v 0.988760 2.623940 -1.152000 # 194
v 0.810780 2.613940 -1.152000 # 195
v 1.000780 2.613940 -1.152000 # 196
v 0.988760 2.613940 -1.152000 # 197
v 0.800780 2.613940 -1.452000 # 198
v 0.800780 2.623940 -1.452000 # 199
v 0.810780 2.623940 -1.418970 # 200
v 0.810780 2.613940 -1.418970 # 201
v 0.792460 1.918400 -1.452000 # 202
v 0.800780 1.923940 -1.452000 # 203
v 0.806330 1.915620 -1.430670 # 204
v 0.798010 1.910080 -1.430670 # 205
v 0.729160 2.623940 -1.660010 # 206
v 0.793330 1.923940 -1.565770 # 207
v 0.729160 1.923940 -1.660010 # 208
v 0.793330 2.623940 -1.565770 # 209
v 0.988760 2.613940 1.148000 # 210
v 0.988760 2.623940 1.148000 # 211
v 1.000780 2.613940 1.148000 # 212
v 0.793330 2.623940 1.561780 # 213
v 0.729160 1.923940 1.656020 # 214
v 0.793330 1.923940 1.561780 # 215
v 0.729160 2.623940 1.656020 # 216
v 0.800780 2.623940 1.448000 # 217
v 0.800780 2.613940 1.448000 # 218
v 0.800780 1.923940 1.448000 # 219
v 0.792460 1.918400 1.448000 # 220
v 0.792460 1.918400 1.148000 # 221
v 0.992460 1.618400 1.148000 # 222
v 0.806330 1.915620 1.426670 # 223
v 0.983790 1.631410 1.148000 # 224
v 0.798010 1.910080 1.426670 # 225
v 0.992110 1.636950 1.148000 # 226
v 0.798010 1.910080 1.148000 # 227
v 0.806330 1.915620 1.148000 # 228
v 0.810780 2.623940 1.148000 # 229
v 0.800780 2.613940 1.148000 # 230
v 0.810780 2.613940 1.148000 # 231
v 0.810780 2.623940 1.414980 # 232
v 0.810780 2.613940 1.414980 # 233
vn -0.000000 0.000000 1.000000 # 1
vn -0.000000 0.000000 -1.000000 # 2
vn 0.000000 1.000000 -0.000000 # 3
vn 1.000000 -0.000000 0.000000 # 4
vn -0.000000 -0.000000 1.000000 # 5
vn 0.000000 -0.000000 -1.000000 # 6
vn -0.000000 -1.000000 0.000000 # 7
vn -1.000000 0.000000 -0.000000 # 8
vn -0.000000 1.000000 0.000000 # 9
vn -0.130530 -0.991440 -0.000000 # 10
vn -0.382680 -0.923880 -0.000000 # 11
vn -0.923880 -0.382680 -0.000000 # 12
vn -0.991440 -0.130530 -0.000000 # 13
vn 0.707110 0.000000 0.707110 # 14
vn -0.000000 0.707110 0.707110 # 15
vn 0.196120 0.784460 -0.588350 # 16
vn 0.242540 0.970140 -0.000000 # 17
vn 0.196120 0.784460 0.588350 # 18
vn 0.983870 0.178890 0.000000 # 19
vn 0.700140 0.140030 -0.700140 # 20
vn 0.670680 0.121940 -0.731650 # 21
vn 0.700140 0.140030 0.700140 # 22
vn 0.670680 0.121940 0.731650 # 23
vn 0.707110 -0.000000 -0.707110 # 24
vn 0.707110 -0.000000 0.707110 # 25
vn 1.000000 0.000000 0.000000 # 26
vn -0.000000 -0.000000 -1.000000 # 27
vn 0.000000 1.000000 0.000000 # 28
vn -0.999510 0.031230 -0.000000 # 29
vn -0.800000 0.600000 -0.000000 # 30
vn 0.000000 -1.000000 0.000000 # 31
vn -0.608760 -0.793350 0.000000 # 32
vn -0.793350 -0.608760 0.000000 # 33
vn 0.000000 0.000000 1.000000 # 34
vn -1.000000 0.000000 0.000000 # 35
vn 0.000000 -1.000000 -0.000000 # 36
vn -0.000000 -1.000000 -0.000000 # 37
vn 0.000000 0.000000 -1.000000 # 38
vn -0.707110 0.707110 0.000000 # 39
vn 0.707110 -0.707110 0.000000 # 40
vn 0.000000 0.707110 -0.707110 # 41
vn -0.832050 -0.000000 0.554700 # 42
vn 0.832050 0.000000 -0.554700 # 43
vn 0.554700 -0.832050 -0.000000 # 44
vn -0.354790 0.532180 0.768710 # 45
vn 0.354790 -0.532180 -0.768710 # 46
vn -0.554700 0.832050 0.000000 # 47
vn 0.832050 0.554700 0.000000 # 48
vn -0.832050 -0.554700 -0.000000 # 49
vn 0.826540 -0.000000 -0.562880 # 50
vn 0.997860 -0.000000 -0.065310 # 51
vn -0.945520 0.000000 0.325570 # 52
vn 0.826540 -0.000000 0.562880 # 53
vn 0.997860 -0.000000 0.065310 # 54
vn -0.945520 0.000000 -0.325570 # 55
vn -0.554700 0.832050 -0.000000 # 56
vn 0.354790 -0.532180 0.768710 # 57
vn -0.354790 0.532180 -0.768710 # 58
vn 0.554700 -0.832050 0.000000 # 59
vn -0.832050 -0.554700 0.000000 # 60
vn 0.832050 0.000000 0.554700 # 61
vn -0.832050 0.000000 -0.554700 # 62
vn 0.832050 0.554700 -0.000000 # 63
mtllib materials.mtl
s off
usemtl Aluminum
f 1//1 2//1 3//1
f 2//1 1//1 4//1
f 5//2 6//2 7//2
f 6//2 5//2 8//2
usemtl White
f 2//3 5//3 7//3
f 5//3 2//3 4//3
usemtl Aluminum
f 8//4 4//4 1//4
f 4//4 8//4 5//4
usemtl TexturedSteel
f 9//5 10//5 11//5
f 10//5 9//5 12//5
f 12//5 13//5 10//5
f 13//5 12//5 14//5
f 13//5 14//5 15//5
f 13//5 15//5 16//5
f 16//5 15//5 17//5
f 17//5 15//5 18//5
usemtl Aluminum
f 19//4 20//4 21//4
f 20//4 19//4 22//4
f 22//4 19//4 14//4
f 21//7 23//7 24//7
f 23//7 21//7 20//7
f 23//8 9//8 24//8
f 9//8 23//8 25//8
f 9//8 25//8 12//8
f 25//3 14//3 12//3
f 14//3 25//3 22//3
f 19//6 24//6 9//6
f 24//6 19//6 21//6
f 26//8 27//8 28//8
f 27//8 26//8 29//8
f 29//8 26//8 30//8
f 28//1 31//1 26//1
f 31//1 28//1 32//1
f 32//7 27//7 33//7
f 27//7 32//7 28//7
f 34//6 27//6 29//6
f 27//6 34//6 33//6
f 30//3 34//3 29//3
f 34//3 30//3 35//3
usemtl TexturedSteel
f 13//9 36//9 37//9
f 36//9 13//9 16//9
f 19//1 15//1 14//1
f 15//1 19//1 38//1
usemtl Orange
f 39//1 40//1 41//1
f 40//1 39//1 42//1
f 43//1 44//1 45//1
f 44//1 43//1 46//1
f 46//1 43//1 47//1
f 46//1 47//1 48//1
f 46//1 48//1 49//1
f 46//1 49//1 50//1
f 46//1 50//1 51//1
f 46//1 51//1 41//1
f 46//1 41//1 52//1
f 52//1 41//1 53//1
f 53//1 41//1 40//1
f 45//1 54//1 55//1
f 54//1 45//1 56//1
f 56//1 45//1 44//1
usemtl DarkGray
f 57//10 58//10 59//10
f 58//10 57//10 60//10
f 58//10 60//10 17//10
f 17//10 60//10 61//10
usemtl TexturedSteel
f 62//11 57//11 63//11
f 57//11 62//11 60//11
f 64//12 65//12 66//12
f 65//12 64//12 67//12
f 64//13 68//13 69//13
f 68//13 64//13 66//13
usemtl Orange
f 74//14 40//14 73//14
f 40//14 74//14 53//14
usemtl Glass
f 46//1 56//1 44//1
f 56//1 46//1 75//1
usemtl Orange
f 76//15 77//15 78//15
f 77//15 76//15 54//15
f 77//15 54//15 56//15
f 77//15 56//15 75//15
f 79//16 80//16 81//16
f 79//17 82//17 80//17
f 82//17 79//17 78//17
f 82//17 78//17 83//17
f 77//18 83//18 78//18
usemtl Glass
f 46//1 77//1 75//1
f 77//1 46//1 52//1
f 77//1 52//1 53//1
f 82//19 74//19 84//19
f 74//19 82//19 83//19
f 81//20 85//20 86//20
f 85//21 81//21 80//21
f 77//22 53//22 74//22
f 74//23 83//23 77//23
f 85//19 82//19 84//19
f 82//19 85//19 80//19
usemtl Orange
f 88//24 91//24 92//24
f 91//24 88//24 90//24
f 85//4 84//4 70//4
f 70//4 74//4 73//4
f 74//4 70//4 84//4
usemtl DarkGray
f 70//3 93//3 87//3
f 93//3 70//3 73//3
usemtl DarkGray
f 87//4 96//4 89//4
f 96//4 87//4 93//4
usemtl DarkGray
f 40//3 93//3 73//3
f 93//3 40//3 97//3
usemtl Orange
f 98//1 39//1 41//1
f 39//1 98//1 99//1
usemtl PaintedSteel
f 98//7 71//7 94//7
f 71//7 98//7 41//7
usemtl Orange
f 94//25 99//25 98//25
f 99//25 94//25 95//25
usemtl DarkGray
f 100//24 89//24 101//24
f 89//24 100//24 87//24
usemtl White
f 89//24 92//24 101//24
f 92//24 89//24 88//24
usemtl DarkGray
f 89//4 95//4 88//4
f 95//4 89//4 96//4
f 96//25 97//25 102//25
f 97//25 96//25 93//25
usemtl White
f 99//14 96//14 102//14
f 96//14 99//14 95//14
usemtl DarkGray
f 42//1 97//1 40//1
f 97//1 42//1 102//1
usemtl Red
f 99//1 42//1 39//1
f 42//1 99//1 102//1
usemtl Aluminum
f 33//4 31//4 32//4
f 31//4 33//4 34//4
f 31//4 34//4 35//4
f 2//8 103//8 3//8
f 103//8 2//8 6//8
f 6//8 2//8 7//8
usemtl CorrugatedMetal
f 8//4 104//4 105//4
f 104//4 8//4 1//4
usemtl Aluminum
f 37//26 106//26 13//26
f 106//26 37//26 104//26
f 104//26 37//26 107//26
f 104//26 107//26 105//26
usemtl CorrugatedMetal
f 6//27 105//27 108//27
f 105//27 6//27 8//27
usemtl Black
f 109//4 15//4 38//4
f 15//4 109//4 110//4
f 15//4 110//4 18//4
f 17//28 110//28 58//28
f 110//28 17//28 18//28
usemtl Orange
f 54//29 16//29 55//29
f 16//29 54//29 111//29
f 16//29 111//29 36//29
f 36//29 111//29 112//29
f 111//29 54//29 113//29
f 112//29 114//29 115//29
f 114//29 112//29 111//29
f 115//29 114//29 116//29
f 113//30 115//30 116//30
f 115//30 113//30 54//30
f 115//30 54//30 117//30
f 117//30 54//30 76//30
usemtl DarkGray
f 70//3 100//3 121//3
f 100//3 70//3 87//3
usemtl Orange
f 121//24 85//24 70//24
f 85//24 121//24 86//24
usemtl DarkGray
f 121//6 101//6 120//6
f 101//6 121//6 100//6
usemtl PaintedSteel
f 91//7 72//7 119//7
f 72//7 91//7 90//7
usemtl Orange
f 118//6 91//6 119//6
f 91//6 118//6 92//6
usemtl Red
f 120//6 92//6 118//6
f 92//6 120//6 101//6
usemtl TexturedSteel
f 72//31 122//31 119//31
f 122//31 72//31 68//31
f 68//31 72//31 69//31
f 69//31 72//31 71//31
f 69//31 71//31 51//31
f 51//31 71//31 41//31
usemtl Orange
f 115//6 123//6 112//6
f 123//6 115//6 124//6
f 123//6 124//6 125//6
f 123//6 125//6 126//6
f 126//6 125//6 127//6
f 127//6 125//6 128//6
f 126//6 127//6 129//6
f 129//6 127//6 130//6
f 130//6 127//6 131//6
f 131//6 127//6 132//6
f 132//6 127//6 122//6
f 133//6 134//6 135//6
f 127//6 119//6 122//6
f 119//6 127//6 136//6
f 119//6 136//6 135//6
f 119//6 135//6 134//6
f 119//6 134//6 137//6
f 119//6 137//6 138//6
f 119//6 138//6 86//6
f 119//6 86//6 118//6
f 118//6 86//6 120//6
f 120//6 86//6 121//6
usemtl DarkGray # Underside of wheel well
f 126//10 59//10 123//10
f 59//10 126//10 57//10
f 63//11 126//11 129//11
f 126//11 63//11 57//11
f 130//32 63//32 129//32
f 63//32 130//32 139//32
f 139//33 131//33 65//33
f 131//33 139//33 130//33
f 61//31 16//31 17//31
f 16//31 61//31 55//31
f 55//31 61//31 45//31
f 65//12 132//12 66//12
f 132//12 65//12 131//12
f 68//13 132//13 122//13
f 132//13 68//13 66//13
f 37//7 10//7 140//7
f 10//7 37//7 13//7
f 146//32 47//32 62//32
f 47//32 146//32 48//32
f 48//33 67//33 49//33
f 67//33 48//33 146//33
f 49//12 64//12 50//12
f 64//12 49//12 67//12
f 50//13 69//13 51//13
f 69//13 50//13 64//13
f 60//10 45//10 61//10
f 45//10 60//10 43//10
f 47//11 60//11 62//11
f 60//11 47//11 43//11
f 107//7 140//7 141//7
f 140//7 107//7 37//7
usemtl CorrugatedMetal
f 142//8 6//8 108//8
f 6//8 142//8 103//8
f 3//8 142//8 143//8
f 142//8 3//8 103//8
f 104//34 3//34 143//34
f 3//34 104//34 1//34
usemtl Aluminum
f 105//6 141//6 108//6
f 141//6 105//6 107//6
usemtl Aluminum # Left lower mirror support 
f 105//7 142//7 108//7
f 142//7 105//7 104//7
f 142//7 104//7 143//7
usemtl Aluminum
f 23//1 22//1 25//1
f 22//1 23//1 20//1
usemtl TexturedSteel
f 10//35 144//35 11//35
f 144//35 10//35 140//35
usemtl Aluminum
f 10//35 141//35 140//35
f 141//35 10//35 108//35
f 108//35 10//35 145//35
f 108//35 145//35 143//35
f 108//35 143//35 142//35
usemtl TexturedSteel
f 109//7 26//7 31//7
f 26//7 109//7 38//7
f 26//7 38//7 9//7
f 26//7 9//7 11//7
f 9//7 38//7 19//7
f 11//7 144//7 26//7
usemtl Aluminum
f 106//5 143//5 145//5
f 143//5 106//5 104//5
usemtl TexturedSteel
f 146//32 63//32 139//32
f 63//32 146//32 62//32
f 67//33 139//33 65//33
f 139//33 67//33 146//33
usemtl PaintedSteel
f 94//7 72//7 90//7
f 72//7 94//7 71//7
usemtl Orange
f 88//4 94//4 90//4
f 94//4 88//4 95//4
usemtl DarkGray
f 58//36 16//36 36//36
f 16//36 58//36 17//36
f 59//37 112//37 123//37
f 112//37 59//37 36//37
f 36//37 59//37 58//37
usemtl Orange
f 76//28 79//28 117//28
f 79//28 76//28 78//28
usemtl DarkGray
f 13//37 145//37 10//37
f 145//37 13//37 106//37
usemtl TexturedSteel
f 37//6 30//6 140//6
f 30//6 37//6 35//6
f 35//6 37//6 31//6
f 31//6 37//6 109//6
f 109//6 37//6 36//6
f 109//6 36//6 58//6
f 109//6 58//6 110//6
f 140//6 26//6 144//6
f 26//6 140//6 30//6
usemtl PaintedSteel
f 147//34 11//34 148//34
f 11//34 147//34 149//34
f 145//28 150//28 151//28
f 150//28 145//28 152//28
f 153//28 154//28 144//28
f 154//28 153//28 155//28
f 156//28 157//28 141//28
f 157//28 156//28 158//28
f 157//38 159//38 141//38
f 159//38 157//38 160//38
f 161//28 147//28 148//28
f 147//28 161//28 162//28
f 144//2 163//2 164//2
f 163//2 144//2 154//2
f 165//28 166//28 167//28
f 166//28 165//28 168//28
f 169//38 168//38 165//38
f 168//38 169//38 170//38
f 171//5 156//5 172//5
f 156//5 171//5 158//5
f 164//28 171//28 172//28
f 171//28 164//28 163//28
f 151//38 162//38 161//38
f 162//38 151//38 150//38
f 160//37 173//37 159//37
f 173//37 160//37 174//37
f 166//5 153//5 167//5
f 153//5 166//5 155//5
f 11//3 170//3 169//3
f 170//3 11//3 149//3
f 160//4 171//4 174//4
f 171//4 160//4 157//4
f 174//4 171//4 168//4
f 171//4 157//4 158//4
f 171//4 166//4 168//4
f 166//4 171//4 163//4
f 166//4 163//4 154//4
f 166//4 154//4 155//4
f 170//4 147//4 168//4
f 147//4 170//4 149//4
f 174//4 162//4 152//4
f 162//4 174//4 168//4
f 162//4 168//4 147//4
f 152//4 162//4 150//4
f 174//1 145//1 173//1
f 145//1 174//1 152//1
f 173//8 161//8 159//8
f 161//8 173//8 145//8
f 159//8 161//8 165//8
f 161//8 145//8 151//8
f 165//8 148//8 169//8
f 148//8 165//8 161//8
f 169//8 148//8 11//8
f 153//8 164//8 167//8
f 164//8 153//8 144//8
f 159//8 172//8 141//8
f 172//8 159//8 165//8
f 172//8 165//8 167//8
f 172//8 167//8 164//8
f 141//8 172//8 156//8
usemtl PaintedSteel # Diagonal struts for rear bumper
f 175//39 176//39 177//39
f 176//39 175//39 178//39
f 179//40 180//40 181//40
f 180//40 179//40 182//40
f 179//34 177//34 182//34
f 177//34 179//34 175//34
f 175//9 181//9 178//9
f 181//9 175//9 179//9
f 177//35 180//35 182//35
f 180//35 177//35 176//35
f 178//38 180//38 176//38
f 180//38 178//38 181//38
f 183//39 184//39 185//39
f 184//39 183//39 186//39
f 187//40 188//40 189//40
f 188//40 187//40 190//40
f 187//34 185//34 190//34
f 185//34 187//34 183//34
f 183//9 189//9 186//9
f 189//9 183//9 187//9
f 185//35 188//35 190//35
f 188//35 185//35 184//35
f 186//38 188//38 184//38
f 188//38 186//38 189//38
usemtl Glass
f 191//38 125//38 124//38
f 125//38 191//38 128//38
f 128//38 191//38 192//38
usemtl Orange
f 117//41 124//41 115//41
f 124//41 117//41 79//41
f 124//41 79//41 191//41
f 191//41 79//41 193//41
f 193//41 79//41 194//41
f 194//41 79//41 81//41
usemtl Glass
f 194//38 195//38 193//38
f 86//38 196//38 81//38
f 196//38 86//38 138//38
f 192//38 135//38 128//38
f 135//38 192//38 195//38
f 135//38 195//38 133//38
f 133//38 195//38 197//38
f 197//38 195//38 194//38
f 133//38 197//38 196//38
f 133//38 196//38 138//38
f 81//38 197//38 194//38
f 197//38 81//38 196//38
usemtl Aluminum
f 81//42 198//42 196//42
f 198//42 81//42 199//42
f 193//38 192//38 191//38
f 192//38 193//38 195//38
f 199//26 192//26 198//26
f 192//26 199//26 191//26
f 200//43 197//43 201//43
f 197//43 200//43 194//43
f 81//7 200//7 199//7
f 200//7 81//7 194//7
f 200//7 191//7 199//7
f 191//7 200//7 193//7
f 193//35 201//35 195//35
f 201//35 193//35 200//35
f 192//3 201//3 198//3
f 201//3 192//3 195//3
f 201//3 196//3 198//3
f 196//3 201//3 197//3
f 128//44 202//44 203//44
f 202//44 128//44 127//44
f 137//45 203//45 202//45
f 203//45 137//45 138//45
f 204//46 134//46 205//46
f 134//46 204//46 133//46
f 136//47 204//47 205//47
f 204//47 136//47 135//47
f 202//48 134//48 137//48
f 134//48 202//48 205//48
f 205//48 202//48 127//48
f 127//48 136//48 205//48
usemtl Glass
f 128//38 136//38 127//38
f 136//38 128//38 135//38
usemtl Aluminum # Left mirror struts
f 128//49 204//49 135//49
f 133//49 203//49 138//49
f 203//49 133//49 204//49
f 203//49 204//49 128//49
usemtl Aluminum
f 206//50 207//50 208//50
f 207//50 206//50 209//50
f 199//3 209//3 206//3
f 209//51 203//51 207//51
f 203//51 209//51 199//51
f 199//52 208//52 203//52
f 208//52 199//52 206//52
f 203//7 208//7 207//7
f 77//38 210//38 211//38
f 210//38 77//38 212//38
f 213//53 214//53 215//53
f 214//53 213//53 216//53
f 216//28 213//28 217//28
f 218//54 215//54 219//54
f 215//54 218//54 213//54
f 213//54 218//54 217//54
f 216//55 219//55 214//55
f 219//55 216//55 218//55
f 218//55 216//55 217//55
f 214//31 219//31 215//31
f 220//56 46//56 221//56
f 46//56 220//56 219//56
f 222//57 219//57 220//57
f 219//57 222//57 52//57
f 223//58 224//58 225//58
f 224//58 223//58 226//58
f 223//59 227//59 228//59
f 227//59 223//59 225//59
f 220//60 224//60 222//60
f 224//60 220//60 225//60
f 225//60 220//60 221//60
f 221//60 227//60 225//60
f 77//61 218//61 212//61
f 218//61 77//61 217//61
f 46//38 227//38 221//38
f 227//38 46//38 228//38
f 229//38 230//38 75//38
f 230//38 229//38 231//38
f 217//35 230//35 218//35
f 230//35 217//35 75//35
f 232//62 210//62 233//62
f 210//62 232//62 211//62
f 217//28 229//28 75//28
f 229//28 217//28 232//28
f 232//28 77//28 211//28
f 77//28 232//28 217//28
f 229//26 233//26 231//26
f 233//26 229//26 232//26
f 46//63 223//63 228//63
f 226//63 219//63 52//63
f 219//63 226//63 223//63
f 219//63 223//63 46//63
f 226//38 222//38 224//38
f 222//38 226//38 52//38
f 218//37 210//37 212//37
f 210//37 218//37 233//37
f 233//37 230//37 231//37
f 230//37 233//37 218//37
usemtl DarkGray # rear window
f 114//29 113//29 116//29
f 113//29 114//29 111//29