mtllib materials.mtl

usemtl Aluminum
v 0.0707107 0.0707107 -1
vt 1.85429 0
vn 0.707107 0.707107 0
v 0.092388 0.0382683 1
vt 0.318146 39.3701
vn 0.92388 0.382683 0
v 0.092388 0.0382683 -1
vt 0.318146 0
f 1/1/1 2/2/2 3/3/2

v 0.0707107 0.0707107 1
vt 1.85429 39.3701
f 2/2/2 1/1/1 4/4/1

vt -1.85429 0
v 0.0382683 0.092388 1
vt -0.318146 39.3701
vn 0.382683 0.92388 0
vt -1.85429 39.3701
f 1/5/1 5/6/3 4/7/1

v 0.0382683 0.092388 -1
vt -0.318146 0
f 5/6/3 1/5/1 6/8/3

v 0.0707107 -0.0707107 -1
vt -6.72089 1.15312
vn 0 0 -1
vt -5.44364 7.57433
vt -6.72089 6.72089
f 7/9/4 6/10/4 1/11/4

v 0.0382683 -0.092388 -1
vt -5.44364 0.299687
f 8/12/4 6/10/4 7/9/4

v 0 0.1 -1
vt -3.93701 7.87402
f 8/12/4 9/13/4 6/10/4

v -1.38778e-17 -0.1 -1
vt -3.93701 0
f 10/14/4 9/13/4 8/12/4

v -0.0382683 0.092388 -1
vt -2.43038 7.57433
f 10/14/4 11/15/4 9/13/4

v -0.0382683 -0.092388 -1
vt -2.43038 0.299687
f 12/16/4 11/15/4 10/14/4

v -0.0707107 0.0707107 -1
vt -1.15312 6.72089
f 12/16/4 13/17/4 11/15/4

v -0.0707107 -0.0707107 -1
vt -1.15312 1.15312
f 14/18/4 13/17/4 12/16/4

v -0.092388 -0.0382683 -1
vt -0.299687 2.43038
f 15/19/4 13/17/4 14/18/4

v -0.092388 0.0382683 -1
vt -0.299687 5.44364
f 15/19/4 16/20/4 13/17/4

v -0.1 0 -1
vt 0 3.93701
f 16/20/4 15/19/4 17/21/4

vt -2.32522 0
vn -0.92388 -0.382683 0
v -0.1 0 1
vt -3.86136 39.3701
vn -1 0 0
vt -3.86136 0
f 15/22/5 18/23/6 17/24/6

v -0.092388 -0.0382683 1
vt -2.32522 39.3701
f 18/23/6 15/22/5 19/25/5

vn -0.707107 -0.707107 0
f 14/8/7 19/7/5 15/5/5

v -0.0707107 -0.0707107 1
f 19/7/5 14/8/7 20/6/7

v -0.0382683 -0.092388 1
vn -0.382683 -0.92388 0
f 14/3/7 21/4/8 20/2/7

f 21/4/8 14/3/7 12/1/8

vt 2.32522 0
v -1.38778e-17 -0.1 1
vt 3.86136 39.3701
vn -1.27347e-16 -1 0
vt 2.32522 39.3701
f 12/26/8 22/27/9 21/28/8

vt 3.86136 0
f 22/27/9 12/26/8 10/29/9

v 0.0382683 -0.092388 1
vt 5.3975 39.3701
vn 0.382683 -0.92388 0
f 10/29/9 23/30/10 22/27/9

vt 5.3975 0
f 23/30/10 10/29/9 8/31/10

vt 4.69271 0
v 0.0707107 -0.0707107 1
vt 6.22886 39.3701
vn 0.707107 -0.707107 0
vt 4.69271 39.3701
f 8/32/10 24/33/11 23/34/10

vt 6.22886 0
f 24/33/11 8/32/10 7/35/11

v 0.092388 -0.0382683 -1
vn 0.92388 -0.382683 0
f 25/35/12 24/34/11 7/32/11

v 0.092388 -0.0382683 1
f 24/34/11 25/35/12 26/33/12

v 0.1 -2.77556e-17 -1
vn 1 -1.55646e-16 0
f 27/31/13 26/27/12 25/29/12

v 0.1 -2.77556e-17 1
f 26/27/12 27/31/13 28/30/13

f 3/29/2 28/28/13 27/26/13

f 28/28/13 3/29/2 2/27/2

vt 7.57433 5.44364
vn 0 0 1
vt 7.57433 2.43038
vt 7.87402 3.93701
f 2/36/14 26/37/14 28/38/14

vt 6.72089 6.72089
f 4/39/14 26/37/14 2/36/14

vt 6.72089 1.15312
f 4/39/14 24/40/14 26/37/14

vt 5.44364 7.57433
f 5/41/14 24/40/14 4/39/14

vt 5.44364 0.299687
f 5/41/14 23/42/14 24/40/14

v 0 0.1 1
vt 3.93701 7.87402
f 29/43/14 23/42/14 5/41/14

vt 3.93701 0
f 29/43/14 22/44/14 23/42/14

v -0.0382683 0.092388 1
vt 2.43038 7.57433
f 30/45/14 22/44/14 29/43/14

vt 2.43038 0.299687
f 30/45/14 21/46/14 22/44/14

v -0.0707107 0.0707107 1
vt 1.15312 6.72089
f 31/47/14 21/46/14 30/45/14

vt 1.15312 1.15312
f 31/47/14 20/48/14 21/46/14

v -0.092388 0.0382683 1
vt 0.299687 5.44364
f 32/49/14 20/48/14 31/47/14

vt 0.299687 2.43038
f 32/49/14 19/50/14 20/48/14

f 19/50/14 32/49/14 18/21/14

vt -5.3975 39.3701
vn -0.92388 0.382683 0
f 32/51/15 17/24/6 18/23/6

vt -5.3975 0
f 17/24/6 32/51/15 16/52/15

vt -6.22886 39.3701
vn -0.707107 0.707107 0
vt -4.69271 0
vt -4.69271 39.3701
f 31/53/16 16/54/15 32/55/15

vt -6.22886 0
f 16/54/15 31/53/16 13/56/16

vn -0.382683 0.92388 0
f 31/55/16 11/56/17 13/54/16

f 11/56/17 31/55/16 30/53/17

vn 1.41497e-16 1 0
f 30/23/17 9/52/18 11/24/17

f 9/52/18 30/23/17 29/51/18

f 29/25/18 6/24/3 9/22/18

f 6/24/3 29/25/18 5/23/3

vt -7.57433 2.43038
vt -7.57433 5.44364
vt -7.87402 3.93701
f 25/57/4 3/58/4 27/59/4

f 25/57/4 1/11/4 3/58/4

f 7/9/4 1/11/4 25/57/4

