mtllib materials.mtl

usemtl White
v -1.46533 70.5306 6
vt -13.5829 465.254
vn -0.934542 0.35341 0.0416305
v -1.51989 71.3695 -6
vt -40.4654 -7.58088
vn -0.72816 0.684142 0.0416305
v -1.93301 70.7075 -6
vt -9.74251 -7.58088
f 1/1/1 2/2/2 3/3/1

v -1.15549 71.0271 6
vt -36.625 465.254
f 2/2/2 1/1/1 4/4/2

v -1.11458 70.398 7
vt -16.4631 427.927
vn -0.875798 0.331195 0.351123
vt -36.625 385.979
vn -0.682389 0.641138 0.351123
vt -13.5829 385.979
f 5/5/3 4/6/4 1/7/3

v -0.882195 70.7704 7
vt -33.7448 427.927
f 4/6/4 5/5/3 6/8/4

vt 26.9434 427.46
v -0.679223 71.3673 6
vt 6.78152 385.512
vn -0.385092 0.853473 0.351123
vt 29.8237 385.512
f 6/9/4 7/10/5 4/11/4

v -0.524993 71.0255 7
vt 9.66179 427.46
f 7/10/5 6/9/4 8/12/5

vt 67.5636 432.762
v -0.109033 71.4993 6
vt 47.4017 390.814
vn -0.0291688 0.935875 0.351123
vt 70.4438 390.814
f 8/13/5 9/14/6 7/15/5

v -0.097351 71.1245 7
vt 50.2819 432.762
f 9/14/6 8/13/5 10/16/6

v 0.335627 71.0523 7
vt 81.9316 443.027
vn 0.331195 0.875798 0.351123
vt 102.094 401.079
vt 99.2133 443.027
f 11/17/7 9/18/6 10/19/6

v 0.46827 71.4031 6
vt 79.0514 401.079
f 9/18/6 11/17/7 12/20/7

v 0.708023 70.8199 7
vt 99.7925 456.691
vn 0.641138 0.682389 0.351123
vt 119.954 414.743
vt 117.074 456.691
f 13/21/8 12/22/7 11/23/7

v 0.964799 71.0932 6
vt 96.9122 414.743
f 12/22/7 13/21/8 14/24/8

vt 118.427 471.675
v 1.30496 70.6169 6
vt 98.2651 429.726
vn 0.853473 0.385092 0.351123
vt 121.307 429.726
f 13/25/8 15/26/9 14/27/8

v 0.963144 70.4627 7
vt 101.145 471.675
f 15/26/9 13/25/8 16/28/9

vt 103.066 485.696
v 1.43697 70.0468 6
vt 82.904 443.748
vn 0.935875 0.0291688 0.351123
vt 105.946 443.748
f 16/29/9 17/30/10 15/31/9

v 1.06215 70.0351 7
vt 85.7843 485.696
f 17/30/10 16/29/9 18/32/10

vt 73.3295 496.621
v 1.34072 69.4695 6
vt 53.1676 454.673
vn 0.875798 -0.331195 0.351123
vt 76.2097 454.673
f 18/33/10 19/34/11 17/35/10

v 0.989967 69.6021 7
vt 56.0478 496.621
f 19/34/11 18/33/10 20/36/11

vt 33.7448 502.787
v 1.03088 68.9729 6
vt 13.5829 460.838
vn 0.682389 -0.641138 0.351123
vt 36.625 460.838
f 20/37/11 21/38/12 19/39/11

v 0.757586 69.2297 7
vt 16.4631 502.787
f 21/38/12 20/37/11 22/40/12

vt -9.66179 503.254
v 0.554613 68.6328 6
vt -29.8237 461.305
vn 0.385092 -0.853473 0.351123
vt -6.78152 461.305
f 22/41/12 23/42/13 21/43/12

v 0.400384 68.9746 7
vt -26.9434 503.254
f 23/42/13 22/41/12 24/44/13

vt -50.2819 497.951
v -0.0155762 68.5008 6
vt -70.4438 456.003
vn 0.0291688 -0.935875 0.351123
vt -47.4017 456.003
f 24/45/13 25/46/14 23/47/13

v -0.0272583 68.8756 7
vt -67.5636 497.951
f 25/46/14 24/45/13 26/48/14

vt -81.9316 487.687
v -0.59288 68.597 6
vt -102.094 445.738
vn -0.331195 -0.875798 0.351123
vt -79.0514 445.738
f 26/49/14 27/50/15 25/51/14

v -0.460236 68.9478 7
vt -99.2133 487.687
f 27/50/15 26/49/14 28/52/15

v -0.832632 69.1801 7
vt -117.074 474.022
vn -0.641138 -0.682389 0.351123
vt -96.9122 432.074
vt -99.7925 474.022
f 29/53/16 27/54/15 28/55/15

v -1.08941 68.9068 6
vt -119.954 432.074
f 27/54/15 29/53/16 30/56/16

vt -101.145 459.039
v -1.42957 69.3831 6
vt -121.307 417.091
vn -0.853473 -0.385092 0.351123
vt -98.2651 417.091
f 29/57/16 31/58/17 30/59/16

v -1.08775 69.5373 7
vt -118.427 459.039
f 31/58/17 29/57/16 32/60/17

vt -85.7843 445.017
v -1.56158 69.9533 6
vt -105.946 403.069
vn -0.935875 -0.0291688 0.351123
vt -82.904 403.069
f 32/61/17 33/62/18 31/63/17

v -1.18676 69.965 7
vt -103.066 445.017
f 33/62/18 32/61/17 34/64/18

vt -56.0478 434.092
vt -76.2097 392.144
vt -53.1676 392.144
f 34/65/18 1/66/3 33/67/18

vt -73.3295 434.092
f 1/66/3 34/65/18 5/68/3

vt -80.0501 -6.85159
vt -53.1676 465.984
vn -0.998648 -0.0311253 0.0416305
vt -76.2097 465.984
f 3/69/1 33/70/19 1/71/1

v -2.06133 69.9377 -6
vt -49.3272 -6.85159
f 33/70/19 3/69/1 35/72/19

v 1.93672 70.0623 -6
vt -81.1549 2.84217e-14
vn 0 0 -1
vt -76.249 157.404
vt -106.554 152.352
f 36/73/20 35/74/20 3/75/20

v 1.8084 69.2926 -6
vt -50.8502 5.05213
f 37/76/20 35/74/20 36/73/20

v -1.88532 69.1775 -6
vt -46.3178 150.474
f 37/76/20 38/77/20 35/74/20

v 1.39528 68.6306 -6
vt -24.7858 21.3168
f 39/78/20 38/77/20 37/76/20

v -1.43178 68.5424 -6
vt -21.3168 132.618
f 39/78/20 40/79/20 38/77/20

v 0.760253 68.177 -6
vt -6.92953 46.3178
f 41/80/20 40/79/20 39/78/20

v -0.769738 68.1293 -6
vt -5.05213 106.554
f 41/80/20 42/81/20 40/79/20

v 1.9984e-14 68.001 -6
vt 0 76.249
f 42/81/20 41/80/20 43/82/20

vt -47.4017 473.538
vn 0.410922 -0.910719 0.0416305
vt -74.2842 0.702225
vn 0.0311253 -0.998648 0.0416305
vt -43.5613 0.702225
f 23/83/21 43/84/22 41/85/21

vt -70.4438 473.538
f 43/84/22 23/83/21 25/86/22

vt -79.0514 472.323
vt -105.934 -0.511973
vn -0.35341 -0.934542 0.0416305
vt -75.211 -0.511973
f 25/87/22 42/88/23 43/89/22

vt -102.094 472.323
f 42/88/23 25/87/22 27/90/23

vt -119.954 470.707
vn -0.684142 -0.72816 0.0416305
vt -93.0719 -2.12829
vt -96.9122 470.707
f 30/91/24 42/92/23 27/93/23

vt -123.795 -2.12829
f 42/92/23 30/91/24 40/94/24

vt -98.2651 468.935
vt -125.148 -3.90067
vn -0.910719 -0.410922 0.0416305
vt -94.4247 -3.90067
f 30/95/24 38/96/25 40/97/24

vt -121.307 468.935
f 38/96/25 30/95/24 31/98/25

vt -82.904 467.276
vt -109.787 -5.55927
vt -79.0637 -5.55927
f 31/99/25 35/100/19 38/101/25

vt -105.946 467.276
f 35/100/19 31/99/25 33/102/19

vt -33.664 1.32945
vt -6.78152 474.165
vn 0.72816 -0.684142 0.0416305
vt -29.8237 474.165
f 41/103/21 21/104/26 23/105/21

vt -2.94116 1.32945
f 21/104/26 41/103/21 39/106/26

vt 9.74251 1.27421
vt 36.625 474.109
vn 0.934542 -0.35341 0.0416305
vt 13.5829 474.109
f 39/107/26 19/108/27 21/109/26

vt 40.4654 1.27421
f 19/108/27 39/107/26 37/110/27

vt 49.3272 0.544913
vt 76.2097 473.38
vn 0.998648 0.0311253 0.0416305
vt 53.1676 473.38
f 37/111/27 17/112/28 19/113/27

vt 80.0501 0.544913
f 17/112/28 37/111/27 36/114/28

vt 79.0637 -0.747406
vt 105.946 472.088
vn 0.910719 0.410922 0.0416305
vt 82.904 472.088
f 36/115/28 15/116/29 17/117/28

v 1.76071 70.8226 -6
vt 109.787 -0.747406
f 15/116/29 36/115/28 44/118/29

vt -111.086 6.92953
f 36/73/20 3/75/20 44/119/20

vt -132.618 136.087
f 44/119/20 3/75/20 2/120/20

v 1.30717 71.4576 -6
vt -136.087 24.7858
f 44/119/20 2/120/20 45/121/20

v -0.884862 71.823 -6
vt -150.474 111.086
f 45/121/20 2/120/20 46/122/20

vt 29.8237 465.199
vt 2.94116 -7.63612
vn -0.410922 0.910719 0.0416305
vt 33.664 -7.63612
f 4/123/2 46/124/30 2/125/2

vt 6.78152 465.199
f 46/124/30 4/123/2 7/126/30

vt 70.4438 465.826
v -0.124609 71.9991 -6
vt 43.5613 -7.0089
vn -0.0311253 0.998648 0.0416305
vt 74.2842 -7.0089
f 7/127/30 47/128/31 46/129/30

vt 47.4017 465.826
f 47/128/31 7/127/30 9/130/31

vt 79.0514 467.041
vn 0.35341 0.934542 0.0416305
vt 105.934 -5.7947
vt 102.094 467.041
f 12/131/32 47/132/31 9/133/31

v 0.645129 71.8707 -6
vt 75.211 -5.7947
f 47/132/31 12/131/32 48/134/32

vt 96.9122 468.657
vn 0.684142 0.72816 0.0416305
vt 123.795 -4.17838
vt 119.954 468.657
f 14/135/33 48/136/32 12/137/32

vt 93.0719 -4.17838
f 48/136/32 14/135/33 45/138/33

vt 121.307 470.429
vt 94.4247 -2.40601
vt 125.148 -2.40601
f 14/139/33 44/140/29 45/141/33

vt 98.2651 470.429
f 44/140/29 14/139/33 15/142/29

vt -152.352 50.8502
f 45/121/20 46/122/20 48/143/20

vt -157.404 81.1549
f 48/143/20 46/122/20 47/144/20

v -0.562253 69 -1.3574
vt -2655.74 601.602
vn -0.382488 0.0319237 -0.923409
v -3.55271e-15 4.19415e-16 -3.6731
vt 22.9268 139.969
vn -2.94896e-17 0.0319237 -0.99949
v -1.40563 9.89997e-16 -3.3935
vt 31.7005 195.707
f 49/145/34 50/146/35 51/147/34

v 2.44249e-14 69 -1.46924
vt -2659.25 579.307
f 50/146/35 49/145/34 52/148/35

v 0.562253 69 -1.3574
vt 2701.59 321.665
vn 0.382488 0.0319237 -0.923409
vt 22.9268 -139.969
vt 2705.1 299.369
f 53/149/36 50/150/35 52/151/35

v 1.40563 -1.51167e-16 -3.3935
vt 14.1531 -84.2312
f 50/150/35 53/149/36 54/152/36

vt 2719.12 76.1794
v 2.59727 -6.34883e-16 -2.59727
vt 2.38445 -11.5869
vn 0.706746 0.0319237 -0.706746
vt 5.02558 -67.9491
f 53/153/36 55/154/37 54/155/36

v 1.03891 69 -1.03891
vt 2718.07 98.7243
f 55/154/37 53/153/36 56/156/37

vt 2718.51 85.494
v 3.3935 -9.58091e-16 -1.40563
vt 0.414432 68.1334
vn 0.923409 0.0319237 -0.382488
vt 1.59464 11.7217
f 56/157/37 57/158/38 55/159/37

v 1.3574 69 -0.562253
vt 2718.04 108.059
f 57/158/38 56/157/37 58/160/38

vt 2718.06 119.265
v 3.6731 -1.07159e-15 0
vt -1.11022e-16 141.834
vn 0.99949 0.0319237 1.83942e-16
vt 0.351409 85.4112
f 58/161/38 59/162/39 57/163/38

v 1.46924 69 0
vt 2717.92 141.834
f 59/162/39 58/161/38 60/164/39

v 1.3574 69 0.562253
vt 2718.06 164.403
vn 0.923409 0.0319237 0.382488
vt 0 141.834
f 61/165/40 59/166/39 60/164/39

v 3.3935 -9.58091e-16 1.40563
vt 0.351409 198.257
f 59/166/39 61/165/40 62/167/40

v 1.03891 69 1.03891
vt 2718.51 155.036
vn 0.706746 0.0319237 0.706746
vt 0.414432 172.397
vt 2718.04 132.472
f 63/168/41 62/169/40 61/170/40

v 2.59727 -6.34883e-16 2.59727
vt 1.59464 228.809
f 62/169/40 63/168/41 64/171/41

v 0.562253 69 1.3574
vt 2719.12 84.679
vn 0.382488 0.0319237 0.923409
vt 2.38445 172.445
vt 2718.07 62.1341
f 65/172/42 64/173/41 63/174/41

v 1.40563 -1.51167e-16 3.3935
vt 5.02558 228.807
f 64/173/41 65/172/42 66/175/42

vt 2701.59 -264.546
v -4.44089e-15 4.19415e-16 3.6731
vt 22.9268 197.088
vn -7.19377e-17 0.0319237 0.99949
vt 14.1531 141.35
f 65/176/42 67/177/43 66/178/42

v 2.44249e-14 69 1.46924
vt 2705.1 -242.251
f 67/177/43 65/176/42 68/179/43

vt -2659.25 -522.188
v -1.40563 9.89997e-16 3.3935
vt 31.7005 -138.588
vn -0.382488 0.0319237 0.923409
vt 22.9268 -82.8501
f 68/180/43 69/181/44 67/182/43

v -0.562253 69 1.3574
vt -2655.74 -544.483
f 69/181/44 68/180/43 70/183/44

v -1.03891 69 1.03891
vt -2701.78 -177.844
vn -0.706746 0.0319237 0.706746
vt 11.2564 -11.1711
vt -2702.84 -155.3
f 71/184/45 69/185/44 70/186/44

v -2.59727 1.47371e-15 2.59727
vt 13.8976 -67.5333
f 69/185/44 71/184/45 72/187/45

vt -2707.63 -5.4531
v -3.3935 1.79692e-15 1.40563
vt 10.4744 11.9075
vn -0.923409 0.0319237 0.382488
vt 9.29422 68.3192
f 71/188/45 73/189/46 72/190/45

v -1.3574 69 0.562253
vt -2707.15 -28.0178
f 73/189/46 71/188/45 74/191/46

v -1.46924 69 0
vt -2708.69 85.4665
vn -0.99949 0.0319237 9.90458e-17
vt 8.88156 141.889
vt -2708.83 108.036
f 75/192/47 73/193/46 74/194/46

v -3.6731 1.91042e-15 -8.88178e-16
vt 9.23297 85.4665
f 73/193/46 75/192/47 76/195/47

v -1.3574 69 -0.562253
vt -2708.83 175.633
vn -0.923409 0.0319237 -0.382488
vt 9.23297 198.202
vt -2708.69 198.202
f 77/196/48 76/197/47 75/198/47

v -3.3935 1.79692e-15 -1.40563
vt 8.88156 141.779
f 76/197/47 77/196/48 78/199/48

v -1.03891 69 -1.03891
vt -2707.63 245.983
vn -0.706746 0.0319237 -0.706746
vt 10.4744 228.623
vt -2707.15 268.548
f 79/200/49 78/201/48 77/202/48

v -2.59727 1.47371e-15 -2.59727
vt 9.29422 172.211
f 78/201/48 79/200/49 80/203/49

vt -2701.78 338.703
vt 11.2564 172.03
vt 13.8976 228.392
f 79/204/49 51/205/34 80/206/49

vt -2702.84 316.158
f 51/205/34 79/204/49 49/207/34

