mtllib materials.mtl

usemtl White
v -1.46533 70.2796 6
vt -13.5829 465.254
vn -0.934542 0.35341 0.0416305
v -1.51989 71.1185 -6
vt -40.4654 -7.58088
vn -0.72816 0.684142 0.0416305
v -1.93301 70.4565 -6
vt -9.74251 -7.58088
f 1/1/1 2/2/2 3/3/1

v -1.15549 70.7761 6
vt -36.625 465.254
f 2/2/2 1/1/1 4/4/2

v -1.11458 70.147 7
vt -16.4631 427.927
vn -0.875798 0.331195 0.351123
vt -36.625 385.979
vn -0.682389 0.641138 0.351123
vt -13.5829 385.979
f 5/5/3 4/6/4 1/7/3

v -0.882195 70.5194 7
vt -33.7448 427.927
f 4/6/4 5/5/3 6/8/4

vt 94.3685 120.13
vn 0 0 1
v 0.963144 70.2117 7
vt 96.918 38.33
vt 109.03 110.981
f 5/9/5 7/10/5 6/11/5

v 1.06215 69.7841 7
vt 80.0817 34.4321
f 5/9/5 8/12/5 7/10/5

v -1.18676 69.714 7
vt 77.3222 122.972
f 9/13/5 8/12/5 5/9/5

v 0.989967 69.3511 7
vt 63.0354 37.2739
f 9/13/5 10/14/5 8/12/5

v -1.08775 69.2863 7
vt 60.4859 119.074
f 11/15/5 10/14/5 9/13/5

v 0.757586 68.9787 7
vt 48.3741 46.4228
f 11/15/5 12/16/5 10/14/5

v -0.832632 68.9291 7
vt 46.4228 109.03
f 13/17/5 12/16/5 11/15/5

v 0.400384 68.7236 7
vt 38.33 60.4859
f 13/17/5 14/18/5 12/16/5

v -0.460236 68.6968 7
vt 37.2739 94.3685
f 15/19/5 14/18/5 13/17/5

v -0.0272583 68.6246 7
vt 34.4321 77.3222
f 14/18/5 15/19/5 16/20/5

v -0.59288 68.346 6
vt -102.094 445.738
vn -0.331195 -0.875798 0.351123
vt -81.9316 487.687
vn 0.0291688 -0.935875 0.351123
vt -99.2133 487.687
f 17/21/6 16/22/7 15/23/6

v -0.0155762 68.2498 6
vt -79.0514 445.738
f 16/22/7 17/21/6 18/24/7

v -0.769738 67.8783 -6
vt -105.934 -0.511973
vn -0.35341 -0.934542 0.0416305
vt -79.0514 472.323
vn 0.0311253 -0.998648 0.0416305
vt -102.094 472.323
f 19/25/8 18/26/9 17/27/8

v 1.9984e-14 67.75 -6
vt -75.211 -0.511973
f 18/26/9 19/25/8 20/28/9

vt -5.05213 106.554
vn 0 0 -1
v 0.760253 67.926 -6
vt -6.92953 46.3178
vt 0 76.249
f 19/29/10 21/30/10 20/31/10

v -1.43178 68.2914 -6
vt -21.3168 132.618
f 21/30/10 19/29/10 22/32/10

vt -93.0719 -2.12829
v -1.08941 68.6558 6
vt -119.954 470.707
vn -0.684142 -0.72816 0.0416305
vt -123.795 -2.12829
f 19/33/8 23/34/11 22/35/11

vt -96.9122 470.707
f 23/34/11 19/33/8 17/36/8

vt -96.9122 432.074
vt -117.074 474.022
vn -0.641138 -0.682389 0.351123
vt -119.954 432.074
f 17/37/6 13/38/12 23/39/12

vt -99.7925 474.022
f 13/38/12 17/37/6 15/40/6

vt -101.145 459.039
v -1.42957 69.1321 6
vt -121.307 417.091
vn -0.853473 -0.385092 0.351123
vt -98.2651 417.091
f 13/41/12 24/42/13 23/43/12

vt -118.427 459.039
f 24/42/13 13/41/12 11/44/13

vt -85.7843 445.017
v -1.56158 69.7023 6
vt -105.946 403.069
vn -0.935875 -0.0291688 0.351123
vt -82.904 403.069
f 11/45/13 25/46/14 24/47/13

vt -103.066 445.017
f 25/46/14 11/45/13 9/48/14

vt -56.0478 434.092
vt -76.2097 392.144
vt -53.1676 392.144
f 9/49/14 1/50/3 25/51/14

vt -73.3295 434.092
f 1/50/3 9/49/14 5/52/3

vt -80.0501 -6.85159
vt -53.1676 465.984
vn -0.998648 -0.0311253 0.0416305
vt -76.2097 465.984
f 3/53/1 25/54/15 1/55/1

v -2.06133 69.6867 -6
vt -49.3272 -6.85159
f 25/54/15 3/53/1 26/56/15

v 1.93672 69.8113 -6
vt -81.1549 0
vt -76.249 157.404
vt -106.554 152.352
f 27/57/10 26/58/10 3/59/10

v 1.8084 69.0416 -6
vt -50.8502 5.05213
f 28/60/10 26/58/10 27/57/10

v -1.88532 68.9265 -6
vt -46.3178 150.474
f 28/60/10 29/61/10 26/58/10

v 1.39528 68.3796 -6
vt -24.7858 21.3168
f 30/62/10 29/61/10 28/60/10

f 30/62/10 22/32/10 29/61/10

f 21/30/10 22/32/10 30/62/10

v 1.03088 68.7219 6
vt -6.78152 474.165
vn 0.72816 -0.684142 0.0416305
vt -33.664 1.32945
vn 0.410922 -0.910719 0.0416305
vt -2.94116 1.32945
f 31/63/16 21/64/17 30/65/16

v 0.554613 68.3818 6
vt -29.8237 474.165
f 21/64/17 31/63/16 32/66/17

vt -9.66179 503.254
vn 0.682389 -0.641138 0.351123
vt -29.8237 461.305
vn 0.385092 -0.853473 0.351123
vt -6.78152 461.305
f 12/67/18 32/68/19 31/69/18

vt -26.9434 503.254
f 32/68/19 12/67/18 14/70/19

vt -50.2819 497.951
vt -70.4438 456.003
vt -47.4017 456.003
f 14/71/19 18/72/7 32/73/19

vt -67.5636 497.951
f 18/72/7 14/71/19 16/74/7

vt -74.2842 0.702225
vt -47.4017 473.538
vt -70.4438 473.538
f 20/75/9 32/76/17 18/77/9

vt -43.5613 0.702225
f 32/76/17 20/75/9 21/78/17

vt 13.5829 460.838
vt 33.7448 502.787
vn 0.875798 -0.331195 0.351123
vt 16.4631 502.787
f 31/79/18 10/80/20 12/81/18

v 1.34072 69.2185 6
vt 36.625 460.838
f 10/80/20 31/79/18 33/82/20

vt 9.74251 1.27421
vt 36.625 474.109
vn 0.934542 -0.35341 0.0416305
vt 13.5829 474.109
f 30/83/16 33/84/21 31/85/16

vt 40.4654 1.27421
f 33/84/21 30/83/16 28/86/21

vt 49.3272 0.544913
v 1.43697 69.7958 6
vt 76.2097 473.38
vn 0.998648 0.0311253 0.0416305
vt 53.1676 473.38
f 28/87/21 34/88/22 33/89/21

vt 80.0501 0.544913
f 34/88/22 28/87/21 27/90/22

vt 79.0637 -0.747406
v 1.30496 70.3659 6
vt 105.946 472.088
vn 0.910719 0.410922 0.0416305
vt 82.904 472.088
f 27/91/22 35/92/23 34/93/22

v 1.76071 70.5716 -6
vt 109.787 -0.747406
f 35/92/23 27/91/22 36/94/23

vt -111.086 6.92953
f 27/57/10 3/59/10 36/95/10

vt -132.618 136.087
f 36/95/10 3/59/10 2/96/10

v 1.30717 71.2066 -6
vt -136.087 24.7858
f 36/95/10 2/96/10 37/97/10

v -0.884862 71.572 -6
vt -150.474 111.086
f 37/97/10 2/96/10 38/98/10

vt 29.8237 465.199
vt 2.94116 -7.63612
vn -0.410922 0.910719 0.0416305
vt 33.664 -7.63612
f 4/99/2 38/100/24 2/101/2

v -0.679223 71.1163 6
vt 6.78152 465.199
f 38/100/24 4/99/2 39/102/24

vt 26.9434 427.46
vt 6.78152 385.512
vn -0.385092 0.853473 0.351123
vt 29.8237 385.512
f 6/103/4 39/104/25 4/105/4

v -0.524993 70.7745 7
vt 9.66179 427.46
f 39/104/25 6/103/4 40/106/25

v 0.708023 70.5689 7
vt 110.981 48.3741
vt 119.074 96.918
f 6/11/5 41/107/5 40/108/5

f 6/11/5 7/10/5 41/107/5

vt 98.2651 429.726
vn 0.853473 0.385092 0.351123
vt 118.427 471.675
vn 0.641138 0.682389 0.351123
vt 101.145 471.675
f 35/109/26 41/110/27 7/111/26

v 0.964799 70.8422 6
vt 121.307 429.726
f 41/110/27 35/109/26 42/112/27

vt 94.4247 -2.40601
vt 121.307 470.429
vn 0.684142 0.72816 0.0416305
vt 98.2651 470.429
f 36/113/23 42/114/28 35/115/23

vt 125.148 -2.40601
f 42/114/28 36/113/23 37/116/28

v 0.645129 71.6197 -6
vt 123.795 -4.17838
vn 0.35341 0.934542 0.0416305
vt 96.9122 468.657
vt 93.0719 -4.17838
f 43/117/29 42/118/28 37/119/28

v 0.46827 71.1521 6
vt 119.954 468.657
f 42/118/28 43/117/29 44/120/29

v -0.124609 71.7481 -6
vt 105.934 -5.7947
vn -0.0311253 0.998648 0.0416305
vt 79.0514 467.041
vt 75.211 -5.7947
f 45/121/30 44/122/29 43/123/29

v -0.109033 71.2483 6
vt 102.094 467.041
f 44/122/29 45/121/30 46/124/30

vt 43.5613 -7.0089
vt 70.4438 465.826
vt 47.4017 465.826
f 45/125/30 39/126/24 46/127/30

vt 74.2842 -7.0089
f 39/126/24 45/125/30 38/128/24

vt -152.352 50.8502
vt -157.404 81.1549
f 43/129/10 38/98/10 45/130/10

f 37/97/10 38/98/10 43/129/10

vt 67.5636 432.762
vt 47.4017 390.814
vn -0.0291688 0.935875 0.351123
vt 70.4438 390.814
f 40/131/25 46/132/31 39/133/25

v -0.097351 70.8735 7
vt 50.2819 432.762
f 46/132/31 40/131/25 47/134/31

v 0.335627 70.8013 7
vt 120.13 63.0354
vt 122.972 80.0817
f 40/108/5 48/135/5 47/136/5

f 40/108/5 41/107/5 48/135/5

vt 99.7925 456.691
vt 119.954 414.743
vn 0.331195 0.875798 0.351123
vt 117.074 456.691
f 41/137/27 44/138/32 48/139/32

vt 96.9122 414.743
f 44/138/32 41/137/27 42/140/27

vt 102.094 401.079
vt 81.9316 443.027
vt 79.0514 401.079
f 46/141/31 48/142/32 44/143/32

vt 99.2133 443.027
f 48/142/32 46/141/31 47/144/31

vt 103.066 485.696
vt 82.904 443.748
vn 0.935875 0.0291688 0.351123
vt 105.946 443.748
f 7/145/26 34/146/33 35/147/26

vt 85.7843 485.696
f 34/146/33 7/145/26 8/148/33

vt 73.3295 496.621
vt 53.1676 454.673
vt 76.2097 454.673
f 8/149/33 33/150/20 34/151/33

vt 56.0478 496.621
f 33/150/20 8/149/33 10/152/20

vt -98.2651 468.935
vt -125.148 -3.90067
vn -0.910719 -0.410922 0.0416305
vt -94.4247 -3.90067
f 23/153/11 29/154/34 22/155/11

vt -121.307 468.935
f 29/154/34 23/153/11 24/156/34

vt -82.904 467.276
vt -109.787 -5.55927
vt -79.0637 -5.55927
f 24/157/34 26/158/15 29/159/34

vt -105.946 467.276
f 26/158/15 24/157/34 25/160/15

v 3.3935 -9.58091e-16 1.40563
vt -11.0078 199.95
vn -4.05925e-16 -1 0
v 3.3935 -9.58091e-16 -1.40563
vt -11.0078 89.2702
v 3.6731 -1.07159e-15 0
vt 0 144.61
f 49/161/35 50/162/35 51/163/35

v 2.59727 -6.34883e-16 -2.59727
vt -42.3553 42.3553
f 50/162/35 49/161/35 52/164/35

v 2.59727 -6.34883e-16 2.59727
vt -42.3553 246.865
f 52/164/35 49/161/35 53/165/35

vt 0.414432 172.397
vn 0.923409 0.0319237 0.382488
v 1.03891 69 1.03891
vt 2718.51 155.036
vn 0.706746 0.0319237 0.706746
vt 1.59464 228.809
f 49/166/36 54/167/37 53/168/37

v 1.3574 69 0.562253
vt 2718.04 132.472
f 54/167/37 49/166/36 55/169/36

vt 0 141.834
vn 0.99949 0.0319237 1.83942e-16
vt 2718.06 164.403
vt 0.351409 198.257
f 51/170/38 55/171/36 49/172/36

v 1.46924 69 0
vt 2717.92 141.834
f 55/171/36 51/170/38 56/173/38

v 1.3574 69 -0.562253
vt 2718.06 119.265
vn 0.923409 0.0319237 -0.382488
f 51/170/38 57/174/39 56/173/38

vt 0.351409 85.4112
f 57/174/39 51/170/38 50/175/39

vt 0.414432 68.1334
v 1.03891 69 -1.03891
vt 2718.51 85.494
vn 0.706746 0.0319237 -0.706746
vt 2718.04 108.059
f 50/176/39 58/177/40 57/178/39

vt 1.59464 11.7217
f 58/177/40 50/176/39 52/179/40

vt 2.38445 -11.5869
v 0.562253 69 -1.3574
vt 2719.12 76.1794
vn 0.382488 0.0319237 -0.923409
vt 2718.07 98.7243
f 52/180/40 59/181/41 58/182/40

v 1.40563 -1.51167e-16 -3.3935
vt 5.02558 -67.9491
f 59/181/41 52/180/40 60/183/41

vt -89.2702 11.0078
f 52/164/35 53/165/35 60/184/35

v 1.40563 -1.51167e-16 3.3935
vt -89.2702 278.212
f 60/184/35 53/165/35 61/185/35

vt 2718.07 62.1341
vt 5.02558 228.807
vn 0.382488 0.0319237 0.923409
vt 2.38445 172.445
f 54/186/37 61/187/42 53/188/37

v 0.562253 69 1.3574
vt 2719.12 84.679
f 61/187/42 54/186/37 62/189/42

vt 103.708 185.512
vn 4.05925e-16 1 0
vt 122.474 91.1691
vt 122.474 198.051
f 54/190/43 59/191/43 62/192/43

vt 103.708 103.708
f 54/190/43 58/193/43 59/191/43

vt 91.1691 166.746
f 55/194/43 58/193/43 54/190/43

vt 91.1691 122.474
f 55/194/43 57/195/43 58/193/43

vt 86.766 144.61
f 57/195/43 55/194/43 56/196/43

v 2.44249e-14 69 1.46924
vt 144.61 202.454
f 62/192/43 59/191/43 63/197/43

v 2.44249e-14 69 -1.46924
vt 144.61 86.766
f 63/197/43 59/191/43 64/198/43

vt 14.1531 -84.2312
vt 2705.1 299.369
vn -2.94896e-17 0.0319237 -0.99949
vt 2701.59 321.665
f 60/199/41 64/200/44 59/201/41

v -3.55271e-15 4.19415e-16 -3.6731
vt 22.9268 -139.969
f 64/200/44 60/199/41 65/202/44

v -4.44089e-15 4.19415e-16 3.6731
vt -144.61 289.22
vt -144.61 0
f 60/184/35 66/203/35 65/204/35

f 60/184/35 61/185/35 66/203/35

vt 2701.59 -264.546
vt 22.9268 197.088
vn -7.19377e-17 0.0319237 0.99949
vt 14.1531 141.35
f 62/205/42 66/206/45 61/207/42

vt 2705.1 -242.251
f 66/206/45 62/205/42 63/208/45

vt -2659.25 -522.188
v -1.40563 9.89997e-16 3.3935
vt 31.7005 -138.588
vn -0.382488 0.0319237 0.923409
vt 22.9268 -82.8501
f 63/209/45 67/210/46 66/211/45

v -0.562253 69 1.3574
vt -2655.74 -544.483
f 67/210/46 63/209/45 68/212/46

v -0.562253 69 -1.3574
vt 166.746 91.1691
vt 166.746 198.051
f 63/197/43 69/213/43 68/214/43

f 63/197/43 64/198/43 69/213/43

vt 22.9268 139.969
vt -2655.74 601.602
vn -0.382488 0.0319237 -0.923409
vt -2659.25 579.307
f 65/215/44 69/216/47 64/217/44

v -1.40563 9.89997e-16 -3.3935
vt 31.7005 195.707
f 69/216/47 65/215/44 70/218/47

vt -199.95 11.0078
f 65/204/35 66/203/35 70/219/35

vt -199.95 278.212
f 70/219/35 66/203/35 67/220/35

v -2.59727 1.47371e-15 -2.59727
vt -246.865 42.3553
f 70/219/35 67/220/35 71/221/35

v -2.59727 1.47371e-15 2.59727
vt -246.865 246.865
f 71/221/35 67/220/35 72/222/35

vt -2702.84 -155.3
vt 13.8976 -67.5333
vn -0.706746 0.0319237 0.706746
vt 11.2564 -11.1711
f 68/223/46 72/224/48 67/225/46

v -1.03891 69 1.03891
vt -2701.78 -177.844
f 72/224/48 68/223/46 73/226/48

v -1.03891 69 -1.03891
vt 185.512 103.708
vt 185.512 185.512
f 68/214/43 74/227/43 73/228/43

f 68/214/43 69/213/43 74/227/43

vt 11.2564 172.03
vt -2701.78 338.703
vn -0.706746 0.0319237 -0.706746
vt -2702.84 316.158
f 70/229/47 74/230/49 69/231/47

vt 13.8976 228.392
f 74/230/49 70/229/47 71/232/49

v -3.3935 1.79692e-15 -1.40563
vt 10.4744 228.623
vn -0.923409 0.0319237 -0.382488
vt -2707.63 245.983
vt 9.29422 172.211
f 75/233/50 74/234/49 71/235/49

v -1.3574 69 -0.562253
vt -2707.15 268.548
f 74/234/49 75/233/50 76/236/50

v -3.6731 1.91042e-15 -8.88178e-16
vt 9.23297 198.202
vn -0.99949 0.0319237 9.90458e-17
vt -2708.83 175.633
vt 8.88156 141.779
f 77/237/51 76/238/50 75/239/50

v -1.46924 69 0
vt -2708.69 198.202
f 76/238/50 77/237/51 78/240/51

v -3.3935 1.79692e-15 1.40563
vt 8.88156 141.889
vn -0.923409 0.0319237 0.382488
vt -2708.69 85.4665
vt 9.23297 85.4665
f 79/241/52 78/242/51 77/243/51

v -1.3574 69 0.562253
vt -2708.83 108.036
f 78/242/51 79/241/52 80/244/52

vt 10.4744 11.9075
vt -2707.63 -5.4531
vt -2707.15 -28.0178
f 79/245/52 73/246/48 80/247/52

vt 9.29422 68.3192
f 73/246/48 79/245/52 72/248/48

vt -278.212 199.95
f 71/221/35 72/222/35 79/249/35

vt -278.212 89.2702
f 71/221/35 79/249/35 75/250/35

vt -289.22 144.61
f 75/250/35 79/249/35 77/251/35

vt 198.051 122.474
vt 198.051 166.746
f 73/228/43 76/252/43 80/253/43

f 73/228/43 74/227/43 76/252/43

vt 202.454 144.61
f 80/253/43 76/252/43 78/254/43

