mtllib materials.mtl

usemtl White
v 1 1.5 1
vt -59.271 107.821
vn -0.114586 0.196346 0.973816
v 0.866025 4.5 0.5
vt -154.925 35.6005
vn -0.229341 0.0791244 0.970125
v -0.15 4.5 0.259808
vt -132.882 0.907003
vn -0.303793 0.0681138 0.9503
f 1/1/1 2/2/2 3/3/3

vt 113.429 59.0551
vn 0.754541 0.0784536 -0.651547
vt -4.7987 78.7402
vn 0.999004 0.0446137 0
v 1 1.5 0
vt -4.7987 39.3701
vn 0.861511 0.120672 -0.49319
f 2/4/4 1/5/5 4/6/6

vt -34.0138 107.636
v -1.73205 4.5 -1
vt 112.049 31.9057
vn 0.498335 0.0815472 -0.863141
vt 79.7034 145.501
f 4/7/6 5/8/7 2/9/4

vt 107.561 12.4499
vn 4.44089e-16 -0.316228 -0.948683
v 8.88178e-15 1.5 0
vt 68.191 12.4499
vt 1.65866e-13 -112.049
f 4/10/8 6/11/8 5/12/8

vt -102.286 2.64339e-14
vn -0.866025 -0.5 4.47615e-16
vt 34.0955 39.3701
v 8.88178e-15 1.5 1
vt 34.0955 78.7402
f 5/13/9 6/14/9 7/15/9

vt -17.1494 100.994
vn -0.325182 0.211171 0.921772
vt -129.978 55.1272
vt -114.314 -22.9378
vn -0.621904 0.0575118 0.780979
f 7/16/10 3/17/3 5/18/11

vt -107.561 18.862
vt -62.2855 -102.79
vt -68.191 18.862
f 1/19/1 3/20/3 7/21/10

vt -118.343 79.2741
v -0.396107 44.5 -0.0556692
vt -1693.1 59.3357
vn -0.347655 0.00525583 0.937608
vt -118.109 -0.346626
f 3/22/3 8/23/12 5/24/11

v -0.00654074 44.5 0.0465397
vt -1694.05 37.0111
vn -0.0826094 0.00560967 0.996566
vt -1693.69 21.159
vt -119.565 70.088
f 9/25/13 8/26/12 3/27/3

vt 67.9335 41.2024
vn -5.55112e-17 -1 0
vt 52.5962 37.1784
v 0.198054 44.5 0.0278346
vt 75.9884 40.4659
f 9/28/14 8/29/14 10/30/14

vt -1694.6 -2.86605
vn -0.234136 0.00767525 0.972174
vt -1693.43 -26.4592
vt -121.071 62.6756
f 10/31/15 8/32/12 3/33/3

vt 1667.65 303.81
vn 0.139149 0.018727 -0.990094
vt 117.055 15.5975
vt 1670.77 280.395
f 10/34/16 5/35/16 8/36/16

vt -1693.91 63.4785
vt -118.095 -1.47658
vt -119.091 78.1383
f 10/37/15 5/38/11 3/39/3

vt 118.493 117.726
vt 118.109 -0.383168
vt 1693.19 80.5483
vn 0.499999 -0.00187303 -0.866024
f 2/40/4 5/41/7 10/42/17

vt -121.442 109.261
vt -1694.5 28.5024
vt -120.114 68.1786
f 2/43/2 10/44/15 3/45/3

vt 1686.23 -164
vt 1686.67 -155.923
vt 114.53 -63.8386
f 10/46/15 9/47/13 3/48/3

v 0.799038 -1.61603 1
vn 0.227334 0.0010615 0.973816
v 3.4641 -3 0.5
vn 0.183194 0.159053 0.970125
v 3.97211 -2.1201 0.259808
vn 0.210885 0.229035 0.9503
f 11/1/18 12/2/19 13/3/20

vn -0.309328 -0.692678 -0.651547
vn -0.460866 -0.88747 0
v 0.799038 -1.61603 0
vn -0.326251 -0.806427 -0.49319
f 12/4/21 11/5/22 14/6/23

v 4.76314 -0.75 -1
vn -0.178545 -0.472344 -0.863141
f 14/7/23 15/8/24 12/9/21

vn -0.273861 0.158114 -0.948683
v 1.29904 -0.75 0
f 14/10/25 16/11/25 15/12/25

vn 2.73185e-16 1 4.47615e-16
v 1.29904 -0.75 1
f 15/13/26 16/14/26 17/15/26

vn 0.34547 0.17603 0.921772
vn 0.360759 0.509829 0.780979
f 17/16/27 13/17/20 15/18/28

f 11/19/18 13/20/20 17/21/27

v 38.7362 -21.907 -0.0556692
vn 0.178379 0.29845 0.937608
f 13/22/20 18/23/29 15/24/28

v 38.5414 -22.2443 0.0465397
vn 0.0461628 0.068737 0.996566
f 19/25/30 18/26/29 13/27/20

vn -0.866025 0.5 0
v 38.4391 -22.4215 0.0278346
f 19/28/31 18/29/31 20/30/31

vn 0.123715 0.19893 0.972174
f 20/31/32 18/32/29 13/33/20

vn -0.0533563 -0.12987 -0.990094
f 20/34/33 15/35/33 18/36/33

f 20/37/32 15/38/28 13/39/20

vn -0.251622 -0.432075 -0.866024
f 12/40/21 15/41/24 20/42/34

f 12/43/19 20/44/32 13/45/20

f 20/46/32 19/47/30 13/48/20

v -1.79904 0.116025 1
vn -0.112747 -0.197407 0.973816
v -4.33013 -1.5 0.5
vn 0.0461469 -0.238178 0.970125
v -3.82211 -2.3799 0.259808
vn 0.0929081 -0.297149 0.9503
f 21/1/35 22/2/36 23/3/37

vn -0.445213 0.614225 -0.651547
vn -0.538139 0.842856 0
v -1.79904 0.116025 0
vn -0.535261 0.685755 -0.49319
f 22/4/38 21/5/39 24/6/40

v -3.03109 -3.75 -1
vn -0.319789 0.390797 -0.863141
f 24/7/40 25/8/41 22/9/38

vn 0.273861 0.158114 -0.948683
v -1.29904 -0.75 0
f 24/10/42 26/11/42 25/12/42

vn 0.866025 -0.5 4.47615e-16
v -1.29904 -0.75 1
f 25/13/43 26/14/43 27/15/43

vn -0.0202882 -0.387201 0.921772
vn 0.261145 -0.56734 0.780979
f 27/16/44 23/17/37 25/18/45

f 21/19/35 23/20/37 27/21/44

v -38.3401 -22.593 -0.0556692
vn 0.169276 -0.303706 0.937608
f 23/22/37 28/23/46 25/24/45

v -38.5349 -22.2557 0.0465397
vn 0.0364466 -0.0743467 0.996566
f 29/25/47 28/26/46 23/27/37

vn 0.866025 0.5 0
v -38.6372 -22.0785 0.0278346
f 29/28/48 28/29/48 30/30/48

vn 0.110421 -0.206605 0.972174
f 30/31/49 28/32/46 23/33/37

vn -0.0857924 0.111143 -0.990094
f 30/34/50 25/35/50 28/36/50

f 30/37/49 25/38/45 23/39/37

vn -0.248377 0.433948 -0.866024
f 22/40/38 25/41/41 30/42/51

f 22/43/36 30/44/49 23/45/37

f 30/46/49 29/47/47 23/48/37

v 0.799038 -1.61603 1
vt 1120.05 78.7402
vn -0.381545 -0.92435 0
v -1.29904 -0.75 0
vt 1030.68 39.3701
v 0.799038 -1.61603 0
vt 1120.05 39.3701
f 31/49/52 32/50/52 33/51/52

v -1.29904 -0.75 1
vt 1030.68 78.7402
f 32/50/52 31/49/52 34/52/52

vt 1120.05 1088.24
vn 0.127943 -0.475366 0.870435
v 7.10543e-15 -3.55271e-15 2
vt 1066.69 1149.41
vn -3.35939e-16 4.40196e-16 1
vt 1030.68 1088.24
vn -0.370499 -0.445195 0.815188
f 31/53/53 35/54/54 34/55/55

v 1.29904 -0.75 1
vt 1530.89 -731.513
vn 0.570799 -0.0982642 0.815188
vt 1530.89 -660.538
vn -3.24355e-16 4.5178e-16 1
vt 1491.52 -731.513
f 36/56/56 35/57/57 31/58/53

vt 645.321 -1228.79
v 1 1.5 1
vt 734.683 -1228.79
vn 0.347708 0.348485 0.870435
vt 681.329 -1167.62
vn -3.24355e-16 4.48884e-16 1
f 36/59/56 37/60/58 35/61/59

vt 645.321 78.7402
vn 0.991283 0.131747 0
v 1 1.5 0
vt 734.683 39.3701
vt 734.683 78.7402
f 36/62/60 38/63/60 37/64/60

v 1.29904 -0.75 0
vt 645.321 39.3701
f 38/63/60 36/62/60 39/65/60

vt 1491.52 78.7402
vn 0.866025 -0.5 0
vt 1530.89 39.3701
vt 1530.89 78.7402
f 31/66/61 39/67/61 36/68/61

vt 1491.52 39.3701
f 39/67/61 31/66/61 33/69/61

vt -1552.61 825.867
vn 0 0 -1
vt -1560.52 948.545
vt -1572.29 859.962
f 33/70/62 38/71/62 39/72/62

v 7.10543e-15 1.5 0
vt -1521.15 948.545
f 33/70/62 40/73/62 38/71/62

vt -1470 859.962
f 32/74/62 40/73/62 33/70/62

v -1.79904 0.116025 0
vt -1450.32 894.058
f 40/73/62 32/74/62 41/75/62

vt -9.74673 39.3701
vn -0.866025 -0.5 0
v -1.79904 0.116025 1
vt -49.1168 78.7402
vt -49.1168 39.3701
f 32/76/63 42/77/63 41/78/63

vt -9.74673 78.7402
f 42/77/63 32/76/63 34/79/63

vt -9.74673 1531.67
vn -3.47523e-16 4.74948e-16 1
vt -49.1168 1460.69
vn -0.475651 0.126882 0.870435
vt -9.74673 1460.69
f 35/80/64 42/81/65 34/82/55

v 7.10543e-15 1.5 1
vt -1784.03 185.132
vn -0.2003 0.543459 0.815188
vt -1694.67 185.132
vt -1748.02 246.295
vn -3.24355e-16 4.40196e-16 1
f 43/83/66 42/84/65 35/85/67

vt -1784.03 39.3701
vn -0.609738 0.792603 0
vt -1694.67 78.7402
vt -1784.03 78.7402
f 40/86/68 42/87/68 43/88/68

vt -1694.67 39.3701
f 42/87/68 40/86/68 41/89/68

vt -1521.15 78.7402
vn 0 1 0
vt -1560.52 39.3701
vt -1521.15 39.3701
f 43/90/69 38/91/69 40/92/69

vt -1560.52 78.7402
f 38/91/69 43/90/69 37/93/69

vt -1560.52 -745.56
vt -1521.15 -745.56
vt -1521.15 -674.584
vn -3.48255e-16 4.86533e-16 1
f 37/94/58 43/95/66 35/96/70

